<?xml version="1.0" encoding="UTF-8" standalone="no"?>
<!DOCTYPE svg PUBLIC "-//W3C//DTD SVG 1.1//EN"
 "http://www.w3.org/Graphics/SVG/1.1/DTD/svg11.dtd">
<!-- Generated by graphviz version 2.38.0 (20140413.2041)
 -->
<!-- Title: %3 Pages: 1 -->
<svg width="1356pt" height="882pt"
 viewBox="0.00 0.00 1356.00 882.00" xmlns="http://www.w3.org/2000/svg" xmlns:xlink="http://www.w3.org/1999/xlink">
<g id="graph0" class="graph" transform="scale(1 1) rotate(0) translate(4 878)">
<title>%3</title>
<polygon fill="white" stroke="none" points="-4,4 -4,-878 1352,-878 1352,4 -4,4"/>
<g id="clust1" class="cluster"><title>cluster_/SM_ROOT</title>
<polygon fill="none" stroke="none" points="8,-8 8,-866 1340,-866 1340,-8 8,-8"/>
</g>
<g id="clust2" class="cluster"><title>cluster_/SM_ROOT/__outcomes__</title>
<path fill="none" stroke="#ffffff" d="M992,-540C992,-540 1280,-540 1280,-540 1286,-540 1292,-546 1292,-552 1292,-552 1292,-566 1292,-566 1292,-572 1286,-578 1280,-578 1280,-578 992,-578 992,-578 986,-578 980,-572 980,-566 980,-566 980,-552 980,-552 980,-546 986,-540 992,-540"/>
</g>
<g id="clust3" class="cluster"><title>cluster_/SM_ROOT/GUIDING_MONITORING</title>
<path fill="none" stroke="#000000" stroke-width="2" d="M28,-16C28,-16 822,-16 822,-16 828,-16 834,-22 834,-28 834,-28 834,-776 834,-776 834,-782 828,-788 822,-788 822,-788 28,-788 28,-788 22,-788 16,-782 16,-776 16,-776 16,-28 16,-28 16,-22 22,-16 28,-16"/>
</g>
<g id="clust4" class="cluster"><title>cluster_/SM_ROOT/GUIDING_MONITORING/__outcomes__</title>
<path fill="none" stroke="#ffffff" d="M418,-742C418,-742 814,-742 814,-742 820,-742 826,-748 826,-754 826,-754 826,-768 826,-768 826,-774 820,-780 814,-780 814,-780 418,-780 418,-780 412,-780 406,-774 406,-768 406,-768 406,-754 406,-754 406,-748 412,-742 418,-742"/>
</g>
<g id="clust5" class="cluster"><title>cluster_/SM_ROOT/GUIDING_MONITORING/GUIDING</title>
<path fill="none" stroke="#000000" stroke-width="2" d="M224,-24C224,-24 814,-24 814,-24 820,-24 826,-30 826,-36 826,-36 826,-672 826,-672 826,-678 820,-684 814,-684 814,-684 224,-684 224,-684 218,-684 212,-678 212,-672 212,-672 212,-36 212,-36 212,-30 218,-24 224,-24"/>
</g>
<g id="clust6" class="cluster"><title>cluster_/SM_ROOT/GUIDING_MONITORING/GUIDING/__outcomes__</title>
<path fill="none" stroke="#ffffff" d="M444,-32C444,-32 732,-32 732,-32 738,-32 744,-38 744,-44 744,-44 744,-58 744,-58 744,-64 738,-70 732,-70 732,-70 444,-70 444,-70 438,-70 432,-64 432,-58 432,-58 432,-44 432,-44 432,-38 438,-32 444,-32"/>
</g>
<g id="clust7" class="cluster"><title>cluster_/SM_ROOT/GUIDING_MONITORING/GUIDING/Show</title>
<path fill="none" stroke="#000000" stroke-width="2" d="M371,-125C371,-125 421,-125 421,-125 427,-125 433,-131 433,-137 433,-137 433,-157 433,-157 433,-163 427,-169 421,-169 421,-169 371,-169 371,-169 365,-169 359,-163 359,-157 359,-157 359,-137 359,-137 359,-131 365,-125 371,-125"/>
</g>
<!-- /SM_ROOT/__proxy__ -->
<g id="node1" class="node"><title>/SM_ROOT/__proxy__</title>
<g id="a_node1"><a xlink:href="/SM_ROOT" xlink:title="SM_ROOT">
<text text-anchor="middle" x="201" y="-839.6" font-family="Times,serif" font-size="18.00">SM_ROOT</text>
</a>
</g>
</g>
<!-- /SM_ROOT/GUIDING_MONITORING/__proxy__ -->
<g id="node5" class="node"><title>/SM_ROOT/GUIDING_MONITORING/__proxy__</title>
<g id="a_node5"><a xlink:href="/SM_ROOT/GUIDING_MONITORING" xlink:title="GUIDING_MONITORING">
<text text-anchor="middle" x="201" y="-756.6" font-family="Times,serif" font-size="18.00">GUIDING_MONITORING</text>
</a>
</g>
</g>
<!-- /SM_ROOT/__proxy__&#45;&gt;/SM_ROOT/GUIDING_MONITORING/__proxy__ -->
<g id="edge28" class="edge"><title>/SM_ROOT/__proxy__&#45;&gt;/SM_ROOT/GUIDING_MONITORING/__proxy__</title>
<g id="a_edge28"><a xlink:href="/SM_ROOT/__proxy__::/SM_ROOT/GUIDING_MONITORING">
<path fill="none" stroke="black" stroke-width="2" d="M201,-829.986C201,-821.248 201,-809.279 201,-797.816"/>
<polygon fill="black" stroke="black" stroke-width="2" points="204.5,-797.539 201,-787.539 197.5,-797.539 204.5,-797.539"/>
</a>
</g>
</g>
<!-- /SM_ROOT:preempted -->
<g id="node2" class="node"><title>/SM_ROOT:preempted</title>
<g id="a_node2"><a xlink:href="/SM_ROOT:preempted" xlink:title="preempted">
<path fill="#fe464f" stroke="#780006" d="M1150.67,-570C1150.67,-570 1099.33,-570 1099.33,-570 1095.67,-570 1092,-566.333 1092,-562.667 1092,-562.667 1092,-555.333 1092,-555.333 1092,-551.667 1095.67,-548 1099.33,-548 1099.33,-548 1150.67,-548 1150.67,-548 1154.33,-548 1158,-551.667 1158,-555.333 1158,-555.333 1158,-562.667 1158,-562.667 1158,-566.333 1154.33,-570 1150.67,-570"/>
<text text-anchor="middle" x="1125" y="-555.9" font-family="Times,serif" font-size="12.00" fill="#780006">preempted</text>
</a>
</g>
</g>
<!-- /SM_ROOT:task_failed -->
<g id="node3" class="node"><title>/SM_ROOT:task_failed</title>
<g id="a_node3"><a xlink:href="/SM_ROOT:task_failed" xlink:title="task_failed">
<path fill="#fe464f" stroke="#780006" d="M1048.67,-570C1048.67,-570 995.333,-570 995.333,-570 991.667,-570 988,-566.333 988,-562.667 988,-562.667 988,-555.333 988,-555.333 988,-551.667 991.667,-548 995.333,-548 995.333,-548 1048.67,-548 1048.67,-548 1052.33,-548 1056,-551.667 1056,-555.333 1056,-555.333 1056,-562.667 1056,-562.667 1056,-566.333 1052.33,-570 1048.67,-570"/>
<text text-anchor="middle" x="1022" y="-555.9" font-family="Times,serif" font-size="12.00" fill="#780006">task_failed</text>
</a>
</g>
</g>
<!-- /SM_ROOT:task_succeeded -->
<g id="node4" class="node"><title>/SM_ROOT:task_succeeded</title>
<g id="a_node4"><a xlink:href="/SM_ROOT:task_succeeded" xlink:title="task_succeeded">
<path fill="#fe464f" stroke="#780006" d="M1276.67,-570C1276.67,-570 1201.33,-570 1201.33,-570 1197.67,-570 1194,-566.333 1194,-562.667 1194,-562.667 1194,-555.333 1194,-555.333 1194,-551.667 1197.67,-548 1201.33,-548 1201.33,-548 1276.67,-548 1276.67,-548 1280.33,-548 1284,-551.667 1284,-555.333 1284,-555.333 1284,-562.667 1284,-562.667 1284,-566.333 1280.33,-570 1276.67,-570"/>
<text text-anchor="middle" x="1239" y="-555.9" font-family="Times,serif" font-size="12.00" fill="#780006">task_succeeded</text>
</a>
</g>
</g>
<!-- /SM_ROOT/GUIDING_MONITORING/HUMAN_MONITOR -->
<g id="node10" class="node"><title>/SM_ROOT/GUIDING_MONITORING/HUMAN_MONITOR</title>
<g id="a_node10"><a xlink:href="/SM_ROOT/GUIDING_MONITORING/HUMAN_MONITOR" xlink:title="HUMAN_MONITOR">
<ellipse fill="none" stroke="#000000" stroke-width="2" cx="114" cy="-662" rx="90.1842" ry="18"/>
<text text-anchor="middle" x="114" y="-658.3" font-family="Times,serif" font-size="14.00">HUMAN_MONITOR</text>
</a>
</g>
</g>
<!-- /SM_ROOT/GUIDING_MONITORING/__proxy__&#45;&gt;/SM_ROOT/GUIDING_MONITORING/HUMAN_MONITOR -->
<g id="edge21" class="edge"><title>/SM_ROOT/GUIDING_MONITORING/__proxy__&#45;&gt;/SM_ROOT/GUIDING_MONITORING/HUMAN_MONITOR</title>
<g id="a_edge21"><a xlink:href="/SM_ROOT/GUIDING_MONITORING/__proxy__::/SM_ROOT/GUIDING_MONITORING/HUMAN_MONITOR">
<path fill="none" stroke="black" stroke-width="2" d="M189.267,-746.918C175.631,-731.715 152.837,-706.301 135.899,-687.417"/>
<polygon fill="black" stroke="black" stroke-width="2" points="138.325,-684.879 129.043,-679.772 133.114,-689.553 138.325,-684.879"/>
</a>
</g>
</g>
<!-- /SM_ROOT/GUIDING_MONITORING/GUIDING/__proxy__ -->
<g id="node11" class="node"><title>/SM_ROOT/GUIDING_MONITORING/GUIDING/__proxy__</title>
<g id="a_node11"><a xlink:href="/SM_ROOT/GUIDING_MONITORING/GUIDING" xlink:title="GUIDING">
<text text-anchor="middle" x="320" y="-657.6" font-family="Times,serif" font-size="18.00">GUIDING</text>
</a>
</g>
</g>
<!-- /SM_ROOT/GUIDING_MONITORING/__proxy__&#45;&gt;/SM_ROOT/GUIDING_MONITORING/GUIDING/__proxy__ -->
<g id="edge22" class="edge"><title>/SM_ROOT/GUIDING_MONITORING/__proxy__&#45;&gt;/SM_ROOT/GUIDING_MONITORING/GUIDING/__proxy__</title>
<g id="a_edge22"><a xlink:href="/SM_ROOT/GUIDING_MONITORING/__proxy__::/SM_ROOT/GUIDING_MONITORING/GUIDING">
<path fill="none" stroke="black" stroke-width="2" d="M217.049,-746.918C234.719,-732.515 263.632,-708.947 286.325,-690.449"/>
<polygon fill="black" stroke="black" stroke-width="2" points="288.832,-692.921 294.372,-683.89 284.41,-687.495 288.832,-692.921"/>
</a>
</g>
</g>
<!-- /SM_ROOT/GUIDING_MONITORING:human_lost -->
<g id="node6" class="node"><title>/SM_ROOT/GUIDING_MONITORING:human_lost</title>
<g id="a_node6"><a xlink:href="/SM_ROOT/GUIDING_MONITORING:human_lost" xlink:title="human_lost">
<path fill="#fe464f" stroke="#780006" d="M582.167,-772C582.167,-772 525.833,-772 525.833,-772 522.167,-772 518.5,-768.333 518.5,-764.667 518.5,-764.667 518.5,-757.333 518.5,-757.333 518.5,-753.667 522.167,-750 525.833,-750 525.833,-750 582.167,-750 582.167,-750 585.833,-750 589.5,-753.667 589.5,-757.333 589.5,-757.333 589.5,-764.667 589.5,-764.667 589.5,-768.333 585.833,-772 582.167,-772"/>
<text text-anchor="middle" x="554" y="-757.9" font-family="Times,serif" font-size="12.00" fill="#780006">human_lost</text>
</a>
</g>
</g>
<!-- /SM_ROOT/HumanLost -->
<g id="node22" class="node"><title>/SM_ROOT/HumanLost</title>
<g id="a_node22"><a xlink:href="/SM_ROOT/HumanLost" xlink:title="HumanLost">
<ellipse fill="none" stroke="#000000" stroke-width="2" cx="1011" cy="-662" rx="52.7911" ry="18"/>
<text text-anchor="middle" x="1011" y="-658.3" font-family="Times,serif" font-size="14.00">HumanLost</text>
</a>
</g>
</g>
<!-- /SM_ROOT/GUIDING_MONITORING:human_lost&#45;&gt;/SM_ROOT/HumanLost -->
<g id="edge23" class="edge"><title>/SM_ROOT/GUIDING_MONITORING:human_lost&#45;&gt;/SM_ROOT/HumanLost</title>
<g id="a_edge23"><a xlink:href="/SM_ROOT/GUIDING_MONITORING:human_lost:/SM_ROOT/HumanLost" xlink:title="human_lost">
<path fill="none" stroke="black" stroke-width="2" d="M580.021,-749.917C588.787,-746.901 598.705,-743.896 608,-742 726.836,-717.759 762.355,-749.484 880,-720 913.641,-711.569 949.614,-695.343 975.336,-682.352"/>
<polygon fill="black" stroke="black" stroke-width="2" points="977.031,-685.417 984.326,-677.733 973.831,-679.191 977.031,-685.417"/>
</a>
</g>
<g id="a_edge23&#45;label"><a xlink:href="/SM_ROOT/GUIDING_MONITORING:human_lost:/SM_ROOT/HumanLost" xlink:title="human_lost">
<text text-anchor="middle" x="945.5" y="-710.4" font-family="Times,serif" font-size="12.00">human_lost</text>
</a>
</g>
</g>
<!-- /SM_ROOT/GUIDING_MONITORING:preempted -->
<g id="node7" class="node"><title>/SM_ROOT/GUIDING_MONITORING:preempted</title>
<g id="a_node7"><a xlink:href="/SM_ROOT/GUIDING_MONITORING:preempted" xlink:title="preempted">
<path fill="#fe464f" stroke="#780006" d="M684.667,-772C684.667,-772 633.333,-772 633.333,-772 629.667,-772 626,-768.333 626,-764.667 626,-764.667 626,-757.333 626,-757.333 626,-753.667 629.667,-750 633.333,-750 633.333,-750 684.667,-750 684.667,-750 688.333,-750 692,-753.667 692,-757.333 692,-757.333 692,-764.667 692,-764.667 692,-768.333 688.333,-772 684.667,-772"/>
<text text-anchor="middle" x="659" y="-757.9" font-family="Times,serif" font-size="12.00" fill="#780006">preempted</text>
</a>
</g>
</g>
<!-- /SM_ROOT/GUIDING_MONITORING:preempted&#45;&gt;/SM_ROOT:preempted -->
<g id="edge24" class="edge"><title>/SM_ROOT/GUIDING_MONITORING:preempted&#45;&gt;/SM_ROOT:preempted</title>
<g id="a_edge24"><a xlink:href="/SM_ROOT/GUIDING_MONITORING:preempted:/SM_ROOT/preempted" xlink:title="preempted">
<path fill="none" stroke="#000000" stroke-width="2" stroke-opacity="0.333333" d="M682.986,-749.939C691.385,-746.847 700.974,-743.79 710,-742 755.947,-732.889 1098.75,-753.975 1131,-720 1166.92,-682.158 1146.94,-613.802 1133.73,-580.015"/>
<polygon fill="#000000" fill-opacity="0.333333" stroke="#000000" stroke-width="2" stroke-opacity="0.333333" points="1136.79,-578.262 1129.75,-570.343 1130.31,-580.922 1136.79,-578.262"/>
</a>
</g>
<g id="a_edge24&#45;label"><a xlink:href="/SM_ROOT/GUIDING_MONITORING:preempted:/SM_ROOT/preempted" xlink:title="preempted">
<text text-anchor="middle" x="1176" y="-658.9" font-family="Times,serif" font-size="12.00">preempted</text>
</a>
</g>
</g>
<!-- /SM_ROOT/GUIDING_MONITORING:task_failed -->
<g id="node8" class="node"><title>/SM_ROOT/GUIDING_MONITORING:task_failed</title>
<g id="a_node8"><a xlink:href="/SM_ROOT/GUIDING_MONITORING:task_failed" xlink:title="task_failed">
<path fill="#fe464f" stroke="#780006" d="M474.667,-772C474.667,-772 421.333,-772 421.333,-772 417.667,-772 414,-768.333 414,-764.667 414,-764.667 414,-757.333 414,-757.333 414,-753.667 417.667,-750 421.333,-750 421.333,-750 474.667,-750 474.667,-750 478.333,-750 482,-753.667 482,-757.333 482,-757.333 482,-764.667 482,-764.667 482,-768.333 478.333,-772 474.667,-772"/>
<text text-anchor="middle" x="448" y="-757.9" font-family="Times,serif" font-size="12.00" fill="#780006">task_failed</text>
</a>
</g>
</g>
<!-- /SM_ROOT/GUIDING_MONITORING:task_failed&#45;&gt;/SM_ROOT:task_failed -->
<g id="edge25" class="edge"><title>/SM_ROOT/GUIDING_MONITORING:task_failed&#45;&gt;/SM_ROOT:task_failed</title>
<g id="a_edge25"><a xlink:href="/SM_ROOT/GUIDING_MONITORING:task_failed:/SM_ROOT/task_failed" xlink:title="task_failed">
<path fill="none" stroke="#000000" stroke-width="2" stroke-opacity="0.333333" d="M472.747,-749.911C481.25,-746.856 490.915,-743.829 500,-742 537.438,-734.464 813.373,-744.097 843,-720 884.49,-686.253 837.595,-642.224 875,-604 901.816,-576.597 944.942,-566.099 977.564,-562.159"/>
<polygon fill="#000000" fill-opacity="0.333333" stroke="#000000" stroke-width="2" stroke-opacity="0.333333" points="978.169,-565.615 987.752,-561.097 977.443,-558.653 978.169,-565.615"/>
</a>
</g>
<g id="a_edge25&#45;label"><a xlink:href="/SM_ROOT/GUIDING_MONITORING:task_failed:/SM_ROOT/task_failed" xlink:title="task_failed">
<text text-anchor="middle" x="888" y="-658.9" font-family="Times,serif" font-size="12.00">task_failed</text>
</a>
</g>
</g>
<!-- /SM_ROOT/GUIDING_MONITORING:task_succeeded -->
<g id="node9" class="node"><title>/SM_ROOT/GUIDING_MONITORING:task_succeeded</title>
<g id="a_node9"><a xlink:href="/SM_ROOT/GUIDING_MONITORING:task_succeeded" xlink:title="task_succeeded">
<path fill="#fe464f" stroke="#780006" d="M810.667,-772C810.667,-772 735.333,-772 735.333,-772 731.667,-772 728,-768.333 728,-764.667 728,-764.667 728,-757.333 728,-757.333 728,-753.667 731.667,-750 735.333,-750 735.333,-750 810.667,-750 810.667,-750 814.333,-750 818,-753.667 818,-757.333 818,-757.333 818,-764.667 818,-764.667 818,-768.333 814.333,-772 810.667,-772"/>
<text text-anchor="middle" x="773" y="-757.9" font-family="Times,serif" font-size="12.00" fill="#780006">task_succeeded</text>
</a>
</g>
</g>
<!-- /SM_ROOT/GUIDING_MONITORING:task_succeeded&#45;&gt;/SM_ROOT:task_succeeded -->
<g id="edge26" class="edge"><title>/SM_ROOT/GUIDING_MONITORING:task_succeeded&#45;&gt;/SM_ROOT:task_succeeded</title>
<g id="a_edge26"><a xlink:href="/SM_ROOT/GUIDING_MONITORING:task_succeeded:/SM_ROOT/task_succeeded" xlink:title="task_succeeded">
<path fill="none" stroke="#000000" stroke-width="2" stroke-opacity="0.333333" d="M818.265,-760.845C889.501,-760.919 1031.36,-755.958 1145,-720 1176.49,-710.037 1190.08,-710.342 1210,-684 1233.23,-653.276 1238.27,-606.941 1239.12,-580.472"/>
<polygon fill="#000000" fill-opacity="0.333333" stroke="#000000" stroke-width="2" stroke-opacity="0.333333" points="1242.63,-580.191 1239.27,-570.142 1235.63,-580.09 1242.63,-580.191"/>
</a>
</g>
<g id="a_edge26&#45;label"><a xlink:href="/SM_ROOT/GUIDING_MONITORING:task_succeeded:/SM_ROOT/task_succeeded" xlink:title="task_succeeded">
<text text-anchor="middle" x="1266" y="-658.9" font-family="Times,serif" font-size="12.00">task_succeeded</text>
</a>
</g>
</g>
<!-- /SM_ROOT/GUIDING_MONITORING/GUIDING/GetRouteRegion -->
<g id="node19" class="node"><title>/SM_ROOT/GUIDING_MONITORING/GUIDING/GetRouteRegion</title>
<g id="a_node19"><a xlink:href="/SM_ROOT/GUIDING_MONITORING/GUIDING/GetRouteRegion" xlink:title="GetRouteRegion">
<ellipse fill="none" stroke="#000000" stroke-width="2" cx="446" cy="-559" rx="69.5877" ry="18"/>
<text text-anchor="middle" x="446" y="-555.3" font-family="Times,serif" font-size="14.00">GetRouteRegion</text>
</a>
</g>
</g>
<!-- /SM_ROOT/GUIDING_MONITORING/GUIDING/__proxy__&#45;&gt;/SM_ROOT/GUIDING_MONITORING/GUIDING/GetRouteRegion -->
<g id="edge20" class="edge"><title>/SM_ROOT/GUIDING_MONITORING/GUIDING/__proxy__&#45;&gt;/SM_ROOT/GUIDING_MONITORING/GUIDING/GetRouteRegion</title>
<g id="a_edge20"><a xlink:href="/SM_ROOT/GUIDING_MONITORING/GUIDING/__proxy__::/SM_ROOT/GUIDING_MONITORING/GUIDING/GetRouteRegion">
<path fill="none" stroke="black" stroke-width="2" d="M336.472,-647.796C356.969,-631.366 392.311,-603.036 417.299,-583.007"/>
<polygon fill="black" stroke="black" stroke-width="2" points="419.726,-585.547 425.339,-576.561 415.347,-580.085 419.726,-585.547"/>
</a>
</g>
</g>
<!-- /SM_ROOT/GUIDING_MONITORING/GUIDING:preempted -->
<g id="node12" class="node"><title>/SM_ROOT/GUIDING_MONITORING/GUIDING:preempted</title>
<g id="a_node12"><a xlink:href="/SM_ROOT/GUIDING_MONITORING/GUIDING:preempted" xlink:title="preempted">
<path fill="#fe464f" stroke="#780006" d="M498.667,-62C498.667,-62 447.333,-62 447.333,-62 443.667,-62 440,-58.3333 440,-54.6667 440,-54.6667 440,-47.3333 440,-47.3333 440,-43.6667 443.667,-40 447.333,-40 447.333,-40 498.667,-40 498.667,-40 502.333,-40 506,-43.6667 506,-47.3333 506,-47.3333 506,-54.6667 506,-54.6667 506,-58.3333 502.333,-62 498.667,-62"/>
<text text-anchor="middle" x="473" y="-47.9" font-family="Times,serif" font-size="12.00" fill="#780006">preempted</text>
</a>
</g>
</g>
<!-- /SM_ROOT/GUIDING_MONITORING/GUIDING:task_failed -->
<g id="node13" class="node"><title>/SM_ROOT/GUIDING_MONITORING/GUIDING:task_failed</title>
<g id="a_node13"><a xlink:href="/SM_ROOT/GUIDING_MONITORING/GUIDING:task_failed" xlink:title="task_failed">
<path fill="#fe464f" stroke="#780006" d="M728.667,-62C728.667,-62 675.333,-62 675.333,-62 671.667,-62 668,-58.3333 668,-54.6667 668,-54.6667 668,-47.3333 668,-47.3333 668,-43.6667 671.667,-40 675.333,-40 675.333,-40 728.667,-40 728.667,-40 732.333,-40 736,-43.6667 736,-47.3333 736,-47.3333 736,-54.6667 736,-54.6667 736,-58.3333 732.333,-62 728.667,-62"/>
<text text-anchor="middle" x="702" y="-47.9" font-family="Times,serif" font-size="12.00" fill="#780006">task_failed</text>
</a>
</g>
</g>
<!-- /SM_ROOT/GUIDING_MONITORING/GUIDING:task_succeeded -->
<g id="node14" class="node"><title>/SM_ROOT/GUIDING_MONITORING/GUIDING:task_succeeded</title>
<g id="a_node14"><a xlink:href="/SM_ROOT/GUIDING_MONITORING/GUIDING:task_succeeded" xlink:title="task_succeeded">
<path fill="#fe464f" stroke="#780006" d="M624.667,-62C624.667,-62 549.333,-62 549.333,-62 545.667,-62 542,-58.3333 542,-54.6667 542,-54.6667 542,-47.3333 542,-47.3333 542,-43.6667 545.667,-40 549.333,-40 549.333,-40 624.667,-40 624.667,-40 628.333,-40 632,-43.6667 632,-47.3333 632,-47.3333 632,-54.6667 632,-54.6667 632,-58.3333 628.333,-62 624.667,-62"/>
<text text-anchor="middle" x="587" y="-47.9" font-family="Times,serif" font-size="12.00" fill="#780006">task_succeeded</text>
</a>
</g>
</g>
<!-- /SM_ROOT/GUIDING_MONITORING/GUIDING/AskShowDirection -->
<g id="node15" class="node"><title>/SM_ROOT/GUIDING_MONITORING/GUIDING/AskShowDirection</title>
<g id="a_node15"><a xlink:href="/SM_ROOT/GUIDING_MONITORING/GUIDING/AskShowDirection" xlink:title="AskShowDirection">
<ellipse fill="none" stroke="#000000" stroke-width="2" cx="378" cy="-456" rx="77.9862" ry="18"/>
<text text-anchor="middle" x="378" y="-452.3" font-family="Times,serif" font-size="14.00">AskShowDirection</text>
</a>
</g>
</g>
<!-- /SM_ROOT/GUIDING_MONITORING/GUIDING/AskShowDirection&#45;&gt;/SM_ROOT/GUIDING_MONITORING/GUIDING:preempted -->
<g id="edge1" class="edge"><title>/SM_ROOT/GUIDING_MONITORING/GUIDING/AskShowDirection&#45;&gt;/SM_ROOT/GUIDING_MONITORING/GUIDING:preempted</title>
<g id="a_edge1"><a xlink:href="/SM_ROOT/GUIDING_MONITORING/GUIDING/AskShowDirection:preempted:/SM_ROOT/GUIDING_MONITORING/GUIDING/preempted" xlink:title="preempted">
<path fill="none" stroke="#000000" stroke-width="2" stroke-opacity="0.333333" d="M367.281,-437.978C345.331,-401.098 298.426,-310.782 312,-232 320.569,-182.267 317.947,-163.979 350,-125 372.644,-97.4632 408.577,-77.8527 435.77,-65.9389"/>
<polygon fill="#000000" fill-opacity="0.333333" stroke="#000000" stroke-width="2" stroke-opacity="0.333333" points="437.138,-69.1606 444.988,-62.0455 434.414,-62.7122 437.138,-69.1606"/>
</a>
</g>
<g id="a_edge1&#45;label"><a xlink:href="/SM_ROOT/GUIDING_MONITORING/GUIDING/AskShowDirection:preempted:/SM_ROOT/GUIDING_MONITORING/GUIDING/preempted" xlink:title="preempted">
<text text-anchor="middle" x="337" y="-246.9" font-family="Times,serif" font-size="12.00">preempted</text>
</a>
</g>
</g>
<!-- /SM_ROOT/GUIDING_MONITORING/GUIDING/GetYesNo -->
<g id="node18" class="node"><title>/SM_ROOT/GUIDING_MONITORING/GUIDING/GetYesNo</title>
<g id="a_node18"><a xlink:href="/SM_ROOT/GUIDING_MONITORING/GUIDING/GetYesNo" xlink:title="GetYesNo">
<ellipse fill="none" stroke="#000000" stroke-width="2" cx="431" cy="-353" rx="48.1917" ry="18"/>
<text text-anchor="middle" x="431" y="-349.3" font-family="Times,serif" font-size="14.00">GetYesNo</text>
</a>
</g>
</g>
<!-- /SM_ROOT/GUIDING_MONITORING/GUIDING/AskShowDirection&#45;&gt;/SM_ROOT/GUIDING_MONITORING/GUIDING/GetYesNo -->
<g id="edge2" class="edge"><title>/SM_ROOT/GUIDING_MONITORING/GUIDING/AskShowDirection&#45;&gt;/SM_ROOT/GUIDING_MONITORING/GUIDING/GetYesNo</title>
<g id="a_edge2"><a xlink:href="/SM_ROOT/GUIDING_MONITORING/GUIDING/AskShowDirection:succeeded:/SM_ROOT/GUIDING_MONITORING/GUIDING/GetYesNo" xlink:title="succeeded">
<path fill="none" stroke="black" stroke-width="2" d="M386.991,-437.867C395.34,-421.955 407.888,-398.044 417.451,-379.82"/>
<polygon fill="black" stroke="black" stroke-width="2" points="420.595,-381.361 422.142,-370.88 414.396,-378.109 420.595,-381.361"/>
</a>
</g>
<g id="a_edge2&#45;label"><a xlink:href="/SM_ROOT/GUIDING_MONITORING/GUIDING/AskShowDirection:succeeded:/SM_ROOT/GUIDING_MONITORING/GUIDING/GetYesNo" xlink:title="succeeded">
<text text-anchor="middle" x="432.5" y="-401.4" font-family="Times,serif" font-size="12.00">succeeded</text>
</a>
</g>
</g>
<!-- /SM_ROOT/GUIDING_MONITORING/GUIDING/AskShowPlace -->
<g id="node16" class="node"><title>/SM_ROOT/GUIDING_MONITORING/GUIDING/AskShowPlace</title>
<g id="a_node16"><a xlink:href="/SM_ROOT/GUIDING_MONITORING/GUIDING/AskShowPlace" xlink:title="AskShowPlace">
<ellipse fill="none" stroke="#000000" stroke-width="2" cx="556" cy="-456" rx="63.8893" ry="18"/>
<text text-anchor="middle" x="556" y="-452.3" font-family="Times,serif" font-size="14.00">AskShowPlace</text>
</a>
</g>
</g>
<!-- /SM_ROOT/GUIDING_MONITORING/GUIDING/AskShowPlace&#45;&gt;/SM_ROOT/GUIDING_MONITORING/GUIDING:preempted -->
<g id="edge3" class="edge"><title>/SM_ROOT/GUIDING_MONITORING/GUIDING/AskShowPlace&#45;&gt;/SM_ROOT/GUIDING_MONITORING/GUIDING:preempted</title>
<g id="a_edge3"><a xlink:href="/SM_ROOT/GUIDING_MONITORING/GUIDING/AskShowPlace:preempted:/SM_ROOT/GUIDING_MONITORING/GUIDING/preempted" xlink:title="preempted">
<path fill="none" stroke="#000000" stroke-width="2" stroke-opacity="0.333333" d="M563.8,-437.884C572.085,-418.11 584,-384.387 584,-354 584,-354 584,-354 584,-197.5 584,-161.324 568.373,-154.187 547,-125 531.293,-103.55 509.158,-82.6125 493.194,-68.7012"/>
<polygon fill="#000000" fill-opacity="0.333333" stroke="#000000" stroke-width="2" stroke-opacity="0.333333" points="495.351,-65.9401 485.476,-62.1015 490.801,-71.2604 495.351,-65.9401"/>
</a>
</g>
<g id="a_edge3&#45;label"><a xlink:href="/SM_ROOT/GUIDING_MONITORING/GUIDING/AskShowPlace:preempted:/SM_ROOT/GUIDING_MONITORING/GUIDING/preempted" xlink:title="preempted">
<text text-anchor="middle" x="609" y="-246.9" font-family="Times,serif" font-size="12.00">preempted</text>
</a>
</g>
</g>
<!-- /SM_ROOT/GUIDING_MONITORING/GUIDING/AskShowPlace&#45;&gt;/SM_ROOT/GUIDING_MONITORING/GUIDING/GetYesNo -->
<g id="edge4" class="edge"><title>/SM_ROOT/GUIDING_MONITORING/GUIDING/AskShowPlace&#45;&gt;/SM_ROOT/GUIDING_MONITORING/GUIDING/GetYesNo</title>
<g id="a_edge4"><a xlink:href="/SM_ROOT/GUIDING_MONITORING/GUIDING/AskShowPlace:succeeded:/SM_ROOT/GUIDING_MONITORING/GUIDING/GetYesNo" xlink:title="succeeded">
<path fill="none" stroke="black" stroke-width="2" d="M535.917,-438.773C514.803,-421.713 481.463,-394.774 458.045,-375.853"/>
<polygon fill="black" stroke="black" stroke-width="2" points="460.19,-373.086 450.213,-369.524 455.791,-378.531 460.19,-373.086"/>
</a>
</g>
<g id="a_edge4&#45;label"><a xlink:href="/SM_ROOT/GUIDING_MONITORING/GUIDING/AskShowPlace:succeeded:/SM_ROOT/GUIDING_MONITORING/GUIDING/GetYesNo" xlink:title="succeeded">
<text text-anchor="middle" x="525.5" y="-401.4" font-family="Times,serif" font-size="12.00">succeeded</text>
</a>
</g>
</g>
<!-- /SM_ROOT/GUIDING_MONITORING/GUIDING/Show/__proxy__ -->
<g id="node17" class="node"><title>/SM_ROOT/GUIDING_MONITORING/GUIDING/Show/__proxy__</title>
<g id="a_node17"><a xlink:href="/SM_ROOT/GUIDING_MONITORING/GUIDING/Show" xlink:title="Show">
<text text-anchor="middle" x="396" y="-142.6" font-family="Times,serif" font-size="18.00">Show</text>
</a>
</g>
</g>
<!-- /SM_ROOT/GUIDING_MONITORING/GUIDING/Show/__proxy__&#45;&gt;/SM_ROOT/GUIDING_MONITORING/GUIDING:preempted -->
<g id="edge7" class="edge"><title>/SM_ROOT/GUIDING_MONITORING/GUIDING/Show/__proxy__&#45;&gt;/SM_ROOT/GUIDING_MONITORING/GUIDING:preempted</title>
<g id="a_edge7"><a xlink:href="/SM_ROOT/GUIDING_MONITORING/GUIDING/Show:preempted:/SM_ROOT/GUIDING_MONITORING/GUIDING/preempted" xlink:title="preempted">
<path fill="none" stroke="#000000" stroke-width="2" stroke-opacity="0.333333" d="M412.858,-125.42C426.346,-108.954 445.083,-86.0807 458.043,-70.2596"/>
<polygon fill="#000000" fill-opacity="0.333333" stroke="#000000" stroke-width="2" stroke-opacity="0.333333" points="461.112,-72.0358 464.741,-62.0819 455.697,-67.6 461.112,-72.0358"/>
</a>
</g>
<g id="a_edge7&#45;label"><a xlink:href="/SM_ROOT/GUIDING_MONITORING/GUIDING/Show:preempted:/SM_ROOT/GUIDING_MONITORING/GUIDING/preempted" xlink:title="preempted">
<text text-anchor="middle" x="482" y="-92.4" font-family="Times,serif" font-size="12.00">preempted</text>
</a>
</g>
</g>
<!-- /SM_ROOT/GUIDING_MONITORING/GUIDING/Show/__proxy__&#45;&gt;/SM_ROOT/GUIDING_MONITORING/GUIDING:task_succeeded -->
<g id="edge6" class="edge"><title>/SM_ROOT/GUIDING_MONITORING/GUIDING/Show/__proxy__&#45;&gt;/SM_ROOT/GUIDING_MONITORING/GUIDING:task_succeeded</title>
<g id="a_edge6"><a xlink:href="/SM_ROOT/GUIDING_MONITORING/GUIDING/Show:show_succeeded:/SM_ROOT/GUIDING_MONITORING/GUIDING/task_succeeded" xlink:title="show_succeeded">
<path fill="none" stroke="#000000" stroke-width="2" stroke-opacity="0.333333" d="M428,-125C464.941,-108.583 479.333,-119.021 516,-102 534.621,-93.3561 553.521,-79.7609 567.135,-68.9276"/>
<polygon fill="#000000" fill-opacity="0.333333" stroke="#000000" stroke-width="2" stroke-opacity="0.333333" points="569.732,-71.3249 575.261,-62.2871 565.303,-65.9044 569.732,-71.3249"/>
</a>
</g>
<g id="a_edge6&#45;label"><a xlink:href="/SM_ROOT/GUIDING_MONITORING/GUIDING/Show:show_succeeded:/SM_ROOT/GUIDING_MONITORING/GUIDING/task_succeeded" xlink:title="show_succeeded">
<text text-anchor="middle" x="579.5" y="-92.4" font-family="Times,serif" font-size="12.00">show_succeeded</text>
</a>
</g>
</g>
<!-- /SM_ROOT/GUIDING_MONITORING/GUIDING/Failure -->
<g id="node20" class="node"><title>/SM_ROOT/GUIDING_MONITORING/GUIDING/Failure</title>
<g id="a_node20"><a xlink:href="/SM_ROOT/GUIDING_MONITORING/GUIDING/Failure" xlink:title="Failure">
<ellipse fill="none" stroke="#000000" stroke-width="2" cx="742" cy="-147" rx="35.9954" ry="18"/>
<text text-anchor="middle" x="742" y="-143.3" font-family="Times,serif" font-size="14.00">Failure</text>
</a>
</g>
</g>
<!-- /SM_ROOT/GUIDING_MONITORING/GUIDING/Show/__proxy__&#45;&gt;/SM_ROOT/GUIDING_MONITORING/GUIDING/Failure -->
<g id="edge5" class="edge"><title>/SM_ROOT/GUIDING_MONITORING/GUIDING/Show/__proxy__&#45;&gt;/SM_ROOT/GUIDING_MONITORING/GUIDING/Failure</title>
<g id="a_edge5"><a xlink:href="/SM_ROOT/GUIDING_MONITORING/GUIDING/Show:show_failed:/SM_ROOT/GUIDING_MONITORING/GUIDING/Failure" xlink:title="show_failed">
<path fill="none" stroke="black" stroke-width="2" d="M428,-169C463.227,-186.542 473.155,-190.696 512,-197 581.332,-208.251 661.25,-181.852 706.282,-163.29"/>
<polygon fill="black" stroke="black" stroke-width="2" points="707.763,-166.464 715.613,-159.348 705.039,-160.015 707.763,-166.464"/>
</a>
</g>
<g id="a_edge5&#45;label"><a xlink:href="/SM_ROOT/GUIDING_MONITORING/GUIDING/Show:show_failed:/SM_ROOT/GUIDING_MONITORING/GUIDING/Failure" xlink:title="show_failed">
<text text-anchor="middle" x="541" y="-195.4" font-family="Times,serif" font-size="12.00">show_failed</text>
</a>
</g>
</g>
<!-- /SM_ROOT/GUIDING_MONITORING/GUIDING/GetYesNo&#45;&gt;/SM_ROOT/GUIDING_MONITORING/GUIDING/GetYesNo -->
<g id="edge8" class="edge"><title>/SM_ROOT/GUIDING_MONITORING/GUIDING/GetYesNo&#45;&gt;/SM_ROOT/GUIDING_MONITORING/GUIDING/GetYesNo</title>
<g id="a_edge8"><a xlink:href="/SM_ROOT/GUIDING_MONITORING/GUIDING/GetYesNo:preempted:/SM_ROOT/GUIDING_MONITORING/GUIDING/GetYesNo" xlink:title="preempted">
<path fill="none" stroke="black" stroke-width="2" d="M472.972,-362.017C495.07,-363.476 515.096,-360.471 515.096,-353 515.096,-346.697 500.839,-343.572 483.11,-343.626"/>
<polygon fill="black" stroke="black" stroke-width="2" points="482.842,-340.133 472.972,-343.983 483.089,-347.129 482.842,-340.133"/>
</a>
</g>
<g id="a_edge8&#45;label"><a xlink:href="/SM_ROOT/GUIDING_MONITORING/GUIDING/GetYesNo:preempted:/SM_ROOT/GUIDING_MONITORING/GUIDING/GetYesNo" xlink:title="preempted">
<text text-anchor="middle" x="540.096" y="-349.9" font-family="Times,serif" font-size="12.00">preempted</text>
</a>
</g>
</g>
<!-- /SM_ROOT/GUIDING_MONITORING/GUIDING/GetYesNo&#45;&gt;/SM_ROOT/GUIDING_MONITORING/GUIDING/Failure -->
<g id="edge9" class="edge"><title>/SM_ROOT/GUIDING_MONITORING/GUIDING/GetYesNo&#45;&gt;/SM_ROOT/GUIDING_MONITORING/GUIDING/Failure</title>
<g id="a_edge9"><a xlink:href="/SM_ROOT/GUIDING_MONITORING/GUIDING/GetYesNo:aborted:/SM_ROOT/GUIDING_MONITORING/GUIDING/Failure" xlink:title="aborted">
<path fill="none" stroke="black" stroke-width="2" d="M470.671,-342.708C515.614,-330.797 589.544,-306.904 643,-268 678.747,-241.984 709.258,-200.172 726.612,-173.404"/>
<polygon fill="black" stroke="black" stroke-width="2" points="729.788,-174.933 732.189,-164.613 723.877,-171.183 729.788,-174.933"/>
</a>
</g>
<g id="a_edge9&#45;label"><a xlink:href="/SM_ROOT/GUIDING_MONITORING/GUIDING/GetYesNo:aborted:/SM_ROOT/GUIDING_MONITORING/GUIDING/Failure" xlink:title="aborted">
<text text-anchor="middle" x="700" y="-246.9" font-family="Times,serif" font-size="12.00">aborted</text>
</a>
</g>
</g>
<!-- /SM_ROOT/GUIDING_MONITORING/GUIDING/DispatchYesNo -->
<g id="node21" class="node"><title>/SM_ROOT/GUIDING_MONITORING/GUIDING/DispatchYesNo</title>
<g id="a_node21"><a xlink:href="/SM_ROOT/GUIDING_MONITORING/GUIDING/DispatchYesNo" xlink:title="DispatchYesNo">
<ellipse fill="none" stroke="#000000" stroke-width="2" cx="446" cy="-250" rx="66.0889" ry="18"/>
<text text-anchor="middle" x="446" y="-246.3" font-family="Times,serif" font-size="14.00">DispatchYesNo</text>
</a>
</g>
</g>
<!-- /SM_ROOT/GUIDING_MONITORING/GUIDING/GetYesNo&#45;&gt;/SM_ROOT/GUIDING_MONITORING/GUIDING/DispatchYesNo -->
<g id="edge10" class="edge"><title>/SM_ROOT/GUIDING_MONITORING/GUIDING/GetYesNo&#45;&gt;/SM_ROOT/GUIDING_MONITORING/GUIDING/DispatchYesNo</title>
<g id="a_edge10"><a xlink:href="/SM_ROOT/GUIDING_MONITORING/GUIDING/GetYesNo:succeeded:/SM_ROOT/GUIDING_MONITORING/GUIDING/DispatchYesNo" xlink:title="succeeded">
<path fill="none" stroke="black" stroke-width="2" d="M433.545,-334.867C435.85,-319.341 439.287,-296.2 441.967,-278.156"/>
<polygon fill="black" stroke="black" stroke-width="2" points="445.436,-278.623 443.443,-268.217 438.512,-277.595 445.436,-278.623"/>
</a>
</g>
<g id="a_edge10&#45;label"><a xlink:href="/SM_ROOT/GUIDING_MONITORING/GUIDING/GetYesNo:succeeded:/SM_ROOT/GUIDING_MONITORING/GUIDING/DispatchYesNo" xlink:title="succeeded">
<text text-anchor="middle" x="464.5" y="-298.4" font-family="Times,serif" font-size="12.00">succeeded</text>
</a>
</g>
</g>
<!-- /SM_ROOT/GUIDING_MONITORING/GUIDING/GetRouteRegion&#45;&gt;/SM_ROOT/GUIDING_MONITORING/GUIDING:preempted -->
<g id="edge12" class="edge"><title>/SM_ROOT/GUIDING_MONITORING/GUIDING/GetRouteRegion&#45;&gt;/SM_ROOT/GUIDING_MONITORING/GUIDING:preempted</title>
<g id="a_edge12"><a xlink:href="/SM_ROOT/GUIDING_MONITORING/GUIDING/GetRouteRegion:preempted:/SM_ROOT/GUIDING_MONITORING/GUIDING/preempted" xlink:title="preempted">
<path fill="none" stroke="#000000" stroke-width="2" stroke-opacity="0.333333" d="M397.62,-546.035C360.081,-534.15 309.885,-512.063 282,-474 234.413,-409.043 240.198,-374.331 254,-295 267.759,-215.916 266.4,-188.888 315,-125 342.843,-88.3992 393.422,-69.5164 429.864,-60.2207"/>
<polygon fill="#000000" fill-opacity="0.333333" stroke="#000000" stroke-width="2" stroke-opacity="0.333333" points="430.833,-63.5876 439.737,-57.8463 429.196,-56.7816 430.833,-63.5876"/>
</a>
</g>
<g id="a_edge12&#45;label"><a xlink:href="/SM_ROOT/GUIDING_MONITORING/GUIDING/GetRouteRegion:preempted:/SM_ROOT/GUIDING_MONITORING/GUIDING/preempted" xlink:title="preempted">
<text text-anchor="middle" x="279" y="-298.4" font-family="Times,serif" font-size="12.00">preempted</text>
</a>
</g>
</g>
<!-- /SM_ROOT/GUIDING_MONITORING/GUIDING/GetRouteRegion&#45;&gt;/SM_ROOT/GUIDING_MONITORING/GUIDING/AskShowDirection -->
<g id="edge11" class="edge"><title>/SM_ROOT/GUIDING_MONITORING/GUIDING/GetRouteRegion&#45;&gt;/SM_ROOT/GUIDING_MONITORING/GUIDING/AskShowDirection</title>
<g id="a_edge11"><a xlink:href="/SM_ROOT/GUIDING_MONITORING/GUIDING/GetRouteRegion:out_region:/SM_ROOT/GUIDING_MONITORING/GUIDING/AskShowDirection" xlink:title="out_region">
<path fill="none" stroke="black" stroke-width="2" d="M434.465,-540.867C423.654,-524.809 407.358,-500.605 395.047,-482.32"/>
<polygon fill="black" stroke="black" stroke-width="2" points="397.853,-480.221 389.365,-473.88 392.047,-484.13 397.853,-480.221"/>
</a>
</g>
<g id="a_edge11&#45;label"><a xlink:href="/SM_ROOT/GUIDING_MONITORING/GUIDING/GetRouteRegion:out_region:/SM_ROOT/GUIDING_MONITORING/GUIDING/AskShowDirection" xlink:title="out_region">
<text text-anchor="middle" x="443" y="-504.4" font-family="Times,serif" font-size="12.00">out_region</text>
</a>
</g>
</g>
<!-- /SM_ROOT/GUIDING_MONITORING/GUIDING/GetRouteRegion&#45;&gt;/SM_ROOT/GUIDING_MONITORING/GUIDING/AskShowPlace -->
<g id="edge13" class="edge"><title>/SM_ROOT/GUIDING_MONITORING/GUIDING/GetRouteRegion&#45;&gt;/SM_ROOT/GUIDING_MONITORING/GUIDING/AskShowPlace</title>
<g id="a_edge13"><a xlink:href="/SM_ROOT/GUIDING_MONITORING/GUIDING/GetRouteRegion:in_region:/SM_ROOT/GUIDING_MONITORING/GUIDING/AskShowPlace" xlink:title="in_region">
<path fill="none" stroke="black" stroke-width="2" d="M464.164,-541.322C482.345,-524.629 510.464,-498.81 530.798,-480.14"/>
<polygon fill="black" stroke="black" stroke-width="2" points="533.175,-482.709 538.174,-473.368 528.441,-477.553 533.175,-482.709"/>
</a>
</g>
<g id="a_edge13&#45;label"><a xlink:href="/SM_ROOT/GUIDING_MONITORING/GUIDING/GetRouteRegion:in_region:/SM_ROOT/GUIDING_MONITORING/GUIDING/AskShowPlace" xlink:title="in_region">
<text text-anchor="middle" x="531" y="-504.4" font-family="Times,serif" font-size="12.00">in_region</text>
</a>
</g>
</g>
<!-- /SM_ROOT/GUIDING_MONITORING/GUIDING/GetRouteRegion&#45;&gt;/SM_ROOT/GUIDING_MONITORING/GUIDING/Failure -->
<g id="edge14" class="edge"><title>/SM_ROOT/GUIDING_MONITORING/GUIDING/GetRouteRegion&#45;&gt;/SM_ROOT/GUIDING_MONITORING/GUIDING/Failure</title>
<g id="a_edge14"><a xlink:href="/SM_ROOT/GUIDING_MONITORING/GUIDING/GetRouteRegion:aborted:/SM_ROOT/GUIDING_MONITORING/GUIDING/Failure" xlink:title="aborted">
<path fill="none" stroke="black" stroke-width="2" d="M499.798,-547.556C542.989,-536.449 602.149,-514.665 638,-474 681.723,-424.405 663.518,-395.134 691,-335 705.051,-304.254 716.73,-300.206 727,-268 736.835,-237.159 740.264,-199.939 741.436,-175.211"/>
<polygon fill="black" stroke="black" stroke-width="2" points="744.938,-175.241 741.822,-165.115 737.943,-174.974 744.938,-175.241"/>
</a>
</g>
<g id="a_edge14&#45;label"><a xlink:href="/SM_ROOT/GUIDING_MONITORING/GUIDING/GetRouteRegion:aborted:/SM_ROOT/GUIDING_MONITORING/GUIDING/Failure" xlink:title="aborted">
<text text-anchor="middle" x="709" y="-349.9" font-family="Times,serif" font-size="12.00">aborted</text>
</a>
</g>
</g>
<!-- /SM_ROOT/GUIDING_MONITORING/GUIDING/GetRouteRegion&#45;&gt;/SM_ROOT/GUIDING_MONITORING/GUIDING/Failure -->
<g id="edge15" class="edge"><title>/SM_ROOT/GUIDING_MONITORING/GUIDING/GetRouteRegion&#45;&gt;/SM_ROOT/GUIDING_MONITORING/GUIDING/Failure</title>
<g id="a_edge15"><a xlink:href="/SM_ROOT/GUIDING_MONITORING/GUIDING/GetRouteRegion:unknown:/SM_ROOT/GUIDING_MONITORING/GUIDING/Failure" xlink:title="unknown">
<path fill="none" stroke="black" stroke-width="2" d="M502.313,-548.352C534.397,-541.49 574.711,-530.511 608,-514 634.121,-501.044 639.858,-495.083 660,-474 698.583,-433.615 712.374,-423.292 732,-371 758.076,-301.522 745.994,-279.102 750,-205 750.312,-199.231 750.519,-197.754 750,-192 749.507,-186.534 748.676,-180.732 747.732,-175.196"/>
<polygon fill="black" stroke="black" stroke-width="2" points="751.111,-174.224 745.835,-165.037 744.23,-175.509 751.111,-174.224"/>
</a>
</g>
<g id="a_edge15&#45;label"><a xlink:href="/SM_ROOT/GUIDING_MONITORING/GUIDING/GetRouteRegion:unknown:/SM_ROOT/GUIDING_MONITORING/GUIDING/Failure" xlink:title="unknown">
<text text-anchor="middle" x="767" y="-349.9" font-family="Times,serif" font-size="12.00">unknown</text>
</a>
</g>
</g>
<!-- /SM_ROOT/GUIDING_MONITORING/GUIDING/Failure&#45;&gt;/SM_ROOT/GUIDING_MONITORING/GUIDING:task_failed -->
<g id="edge16" class="edge"><title>/SM_ROOT/GUIDING_MONITORING/GUIDING/Failure&#45;&gt;/SM_ROOT/GUIDING_MONITORING/GUIDING:task_failed</title>
<g id="a_edge16"><a xlink:href="/SM_ROOT/GUIDING_MONITORING/GUIDING/Failure:aborted:/SM_ROOT/GUIDING_MONITORING/GUIDING/task_failed" xlink:title="aborted">
<path fill="none" stroke="#000000" stroke-width="2" stroke-opacity="0.333333" d="M734.849,-129.195C727.963,-113.014 717.555,-88.5533 710.305,-71.5179"/>
<polygon fill="#000000" fill-opacity="0.333333" stroke="#000000" stroke-width="2" stroke-opacity="0.333333" points="713.396,-69.842 706.26,-62.0109 706.955,-72.583 713.396,-69.842"/>
</a>
</g>
<g id="a_edge16&#45;label"><a xlink:href="/SM_ROOT/GUIDING_MONITORING/GUIDING/Failure:aborted:/SM_ROOT/GUIDING_MONITORING/GUIDING/task_failed" xlink:title="aborted">
<text text-anchor="middle" x="742" y="-92.4" font-family="Times,serif" font-size="12.00">aborted</text>
</a>
</g>
</g>
<!-- /SM_ROOT/GUIDING_MONITORING/GUIDING/DispatchYesNo&#45;&gt;/SM_ROOT/GUIDING_MONITORING/GUIDING:preempted -->
<g id="edge18" class="edge"><title>/SM_ROOT/GUIDING_MONITORING/GUIDING/DispatchYesNo&#45;&gt;/SM_ROOT/GUIDING_MONITORING/GUIDING:preempted</title>
<g id="a_edge18"><a xlink:href="/SM_ROOT/GUIDING_MONITORING/GUIDING/DispatchYesNo:preempted:/SM_ROOT/GUIDING_MONITORING/GUIDING/preempted" xlink:title="preempted">
<path fill="none" stroke="#000000" stroke-width="2" stroke-opacity="0.333333" d="M453.285,-231.758C464.278,-204.706 484.608,-150.375 492,-102 492.873,-96.2885 493.358,-94.616 492,-89 490.536,-82.9462 487.902,-76.7718 485.053,-71.2451"/>
<polygon fill="#000000" fill-opacity="0.333333" stroke="#000000" stroke-width="2" stroke-opacity="0.333333" points="487.877,-69.131 479.896,-62.1627 481.79,-72.587 487.877,-69.131"/>
</a>
</g>
<g id="a_edge18&#45;label"><a xlink:href="/SM_ROOT/GUIDING_MONITORING/GUIDING/DispatchYesNo:preempted:/SM_ROOT/GUIDING_MONITORING/GUIDING/preempted" xlink:title="preempted">
<text text-anchor="middle" x="513" y="-143.9" font-family="Times,serif" font-size="12.00">preempted</text>
</a>
</g>
</g>
<!-- /SM_ROOT/GUIDING_MONITORING/GUIDING/DispatchYesNo&#45;&gt;/SM_ROOT/GUIDING_MONITORING/GUIDING:task_succeeded -->
<g id="edge17" class="edge"><title>/SM_ROOT/GUIDING_MONITORING/GUIDING/DispatchYesNo&#45;&gt;/SM_ROOT/GUIDING_MONITORING/GUIDING:task_succeeded</title>
<g id="a_edge17"><a xlink:href="/SM_ROOT/GUIDING_MONITORING/GUIDING/DispatchYesNo:no:/SM_ROOT/GUIDING_MONITORING/GUIDING/task_succeeded" xlink:title="no">
<path fill="none" stroke="#000000" stroke-width="2" stroke-opacity="0.333333" d="M502.78,-240.59C528.477,-234.362 557.774,-223.585 579,-205 621.237,-168.016 652.112,-140.163 629,-89 625.456,-81.1542 619.335,-74.3076 612.844,-68.7081"/>
<polygon fill="#000000" fill-opacity="0.333333" stroke="#000000" stroke-width="2" stroke-opacity="0.333333" points="614.638,-65.6694 604.593,-62.3012 610.345,-71.1985 614.638,-65.6694"/>
</a>
</g>
<g id="a_edge17&#45;label"><a xlink:href="/SM_ROOT/GUIDING_MONITORING/GUIDING/DispatchYesNo:no:/SM_ROOT/GUIDING_MONITORING/GUIDING/task_succeeded" xlink:title="no">
<text text-anchor="middle" x="643.5" y="-143.9" font-family="Times,serif" font-size="12.00">no</text>
</a>
</g>
</g>
<!-- /SM_ROOT/GUIDING_MONITORING/GUIDING/DispatchYesNo&#45;&gt;/SM_ROOT/GUIDING_MONITORING/GUIDING/Show/__proxy__ -->
<g id="edge19" class="edge"><title>/SM_ROOT/GUIDING_MONITORING/GUIDING/DispatchYesNo&#45;&gt;/SM_ROOT/GUIDING_MONITORING/GUIDING/Show/__proxy__</title>
<g id="a_edge19"><a xlink:href="/SM_ROOT/GUIDING_MONITORING/GUIDING/DispatchYesNo:show:/SM_ROOT/GUIDING_MONITORING/GUIDING/Show" xlink:title="show">
<path fill="none" stroke="black" stroke-width="2" d="M437.518,-231.867C429.11,-214.883 416.191,-188.786 406.999,-170.218"/>
<polygon fill="black" stroke="black" stroke-width="2" points="415.474,-172.435 405.452,-169 411.145,-177.936 415.474,-172.435"/>
</a>
</g>
<g id="a_edge19&#45;label"><a xlink:href="/SM_ROOT/GUIDING_MONITORING/GUIDING/DispatchYesNo:show:/SM_ROOT/GUIDING_MONITORING/GUIDING/Show" xlink:title="show">
<text text-anchor="middle" x="437" y="-195.4" font-family="Times,serif" font-size="12.00">show</text>
</a>
</g>
</g>
<!-- /SM_ROOT/HumanLost&#45;&gt;/SM_ROOT:task_failed -->
<g id="edge27" class="edge"><title>/SM_ROOT/HumanLost&#45;&gt;/SM_ROOT:task_failed</title>
<g id="a_edge27"><a xlink:href="/SM_ROOT/HumanLost:task_failed:/SM_ROOT/task_failed" xlink:title="task_failed">
<path fill="none" stroke="#000000" stroke-width="2" stroke-opacity="0.333333" d="M1012.87,-643.867C1014.78,-626.26 1017.77,-598.858 1019.8,-580.204"/>
<polygon fill="#000000" fill-opacity="0.333333" stroke="#000000" stroke-width="2" stroke-opacity="0.333333" points="1023.29,-580.449 1020.9,-570.129 1016.33,-579.691 1023.29,-580.449"/>
</a>
</g>
<g id="a_edge27&#45;label"><a xlink:href="/SM_ROOT/HumanLost:task_failed:/SM_ROOT/task_failed" xlink:title="task_failed">
<text text-anchor="middle" x="1043" y="-607.4" font-family="Times,serif" font-size="12.00">task_failed</text>
</a>
</g>
</g>
</g>
</svg>
